<svg width="24.000000" height="24.000000" viewBox="0 0 24 24" fill="none" xmlns="http://www.w3.org/2000/svg" xmlns:xlink="http://www.w3.org/1999/xlink">
	<desc>
			Created with Pixso.
	</desc>
	<defs>
		<clipPath id="clip11_2727">
			<rect id="wallet 1" rx="0.000000" width="23.000000" height="23.000000" transform="translate(0.500000 0.500000)" fill="white" fill-opacity="0"/>
		</clipPath>
	</defs>
	<rect id="wallet 1" rx="0.000000" width="23.000000" height="23.000000" transform="translate(0.500000 0.500000)" fill="#FFFFFF" fill-opacity="0"/>
	<g clip-path="url(#clip11_2727)">
		<path id="Vector" d="M18.95 1.09C19.1 1.05 19.25 1.09 19.35 1.14C19.6 1.3 19.75 1.55 19.79 1.89L20.29 4.59L21.15 4.59L20.65 1.75C20.55 1.14 20.25 0.69 19.79 0.39C19.45 0.19 19.04 0.14 18.7 0.25L4.79 4.55L7.39 4.59L18.95 1.09Z" fill="#F04B36" fill-opacity="1.000000" fill-rule="nonzero"/>
		<path id="Vector" d="M22.45 4.6L21.2 4.6L20.35 4.6L7.45 4.6L4.8 4.55C4.45 4.65 4.1 4.9 3.9 5.3C3.75 5.55 3.7 5.8 3.7 6.1L3.7 13C4.25 12.85 4.85 12.75 5.45 12.75C8.9 12.75 11.7 15.45 11.7 18.75C11.7 19.29 11.65 19.79 11.5 20.29L22.45 20.29C23.15 20.29 23.75 19.65 23.75 18.85L23.75 15.6L17.65 15.6C17.4 15.6 17.25 15.4 17.25 15.2L17.25 9.85C17.25 9.6 17.45 9.44 17.65 9.44L23.75 9.44L23.75 6.1C23.75 5.3 23.15 4.6 22.45 4.6Z" fill="#F7A93B" fill-opacity="1.000000" fill-rule="nonzero"/>
		<path id="Vector" d="M18.04 14.75L23.75 14.75L23.75 10.25L18.04 10.25L18.04 14.75ZM20.65 11.64C21.05 11.64 21.4 12.05 21.4 12.5C21.4 13 21.05 13.35 20.65 13.35C20.25 13.35 19.9 12.95 19.9 12.5C19.9 12.05 20.25 11.64 20.65 11.64Z" fill="#E77528" fill-opacity="1.000000" fill-rule="nonzero"/>
		<path id="Vector" d="M5.5 13.7C2.6 13.7 0.25 15.95 0.25 18.7C0.25 21.45 2.6 23.7 5.5 23.7C7.64 23.7 9.64 22.39 10.4 20.45C10.6 19.89 10.75 19.29 10.75 18.7C10.75 15.95 8.39 13.7 5.5 13.7ZM7.5 19.2L6 19.2L6 20.7C6 20.95 5.79 21.2 5.5 21.2C5.25 21.2 5 21 5 20.7L5 19.2L3.5 19.2C3.25 19.2 3 19 3 18.7C3 18.45 3.2 18.2 3.5 18.2L5 18.2L5 16.7C5 16.45 5.2 16.2 5.5 16.2C5.75 16.2 6 16.39 6 16.7L6 18.2L7.5 18.2C7.75 18.2 8 18.39 8 18.7C8 19 7.79 19.2 7.5 19.2Z" fill="#0DB89A" fill-opacity="1.000000" fill-rule="nonzero"/>
	</g>
</svg>
