<svg width="24.000000" height="24.000000" viewBox="0 0 24 24" fill="none" xmlns="http://www.w3.org/2000/svg" xmlns:xlink="http://www.w3.org/1999/xlink">
	<desc>
			Created with Pixso.
	</desc>
	<defs>
		<clipPath id="clip11_2736">
			<rect id="send 1" rx="0.000000" width="23.000000" height="23.000000" transform="translate(0.500000 0.500000)" fill="white" fill-opacity="0"/>
		</clipPath>
	</defs>
	<rect id="send 1" rx="0.000000" width="23.000000" height="23.000000" transform="translate(0.500000 0.500000)" fill="#FFFFFF" fill-opacity="0"/>
	<g clip-path="url(#clip11_2736)">
		<path id="Vector" d="M12.63 16.46L7.18 21.95C7.08 21.75 7.2 21.5 7.18 21.26L9.1 15.8C11.5 15.8 12.25 15.34 12.63 16.46Z" fill="#46A350" fill-opacity="1.000000" fill-rule="evenodd"/>
		<path id="Vector" d="M21.81 7.01C22.27 6.22 21.5 5.28 20.64 5.57L3.07 11.26C2.23 11.53 2.13 12.69 2.92 13.1L13.99 18.82C14.47 19.07 15.06 18.89 15.32 18.43L21.81 7.01Z" fill="#099718" fill-opacity="1.000000" fill-rule="nonzero"/>
		<path id="Vector" d="M13.99 12.03C14.3 11.58 13.82 10.96 13.3 11.2L6.81 14.16C6.46 14.33 6.23 14.68 6.23 15.07L6.9 21.79C6.93 22 7.22 22.03 7.29 21.83L9.01 16.83C9.13 16.48 9.34 16.17 9.62 15.94C10.73 15.01 13.6 12.58 13.99 12.03Z" fill="#005513" fill-opacity="1.000000" fill-rule="nonzero"/>
		<path id="Vector" d="M6.2 7.8C6.2 11 8.79 13.6 12 13.6C15.2 13.6 17.79 11 17.79 7.8C17.79 4.59 15.2 2 12 2C8.79 2 6.2 4.59 6.2 7.8Z" fill="#FFBA33" fill-opacity="1.000000" fill-rule="nonzero"/>
		<path id="Vector" d="M12.4 5C12.4 4.77 12.22 4.6 12 4.6C11.77 4.6 11.6 4.77 11.6 5L11.6 5.4L10.82 5.4C10.37 5.4 10 5.57 9.75 5.86C9.51 6.14 9.39 6.5 9.39 6.85C9.39 7.19 9.51 7.55 9.75 7.83C10 8.12 10.37 8.3 10.82 8.3L11.6 8.3L11.6 9.6L10.09 9.6C9.87 9.6 9.69 9.77 9.69 10C9.69 10.22 9.87 10.4 10.09 10.4L11.6 10.4L11.6 10.8C11.6 11.02 11.77 11.2 12 11.2C12.22 11.2 12.4 11.02 12.4 10.8L12.4 10.4L13.17 10.4C13.62 10.4 13.99 10.22 14.24 9.93C14.48 9.65 14.6 9.29 14.6 8.95C14.6 8.6 14.48 8.24 14.24 7.96C13.99 7.67 13.62 7.5 13.17 7.5L12.4 7.5L12.4 6.2L13.76 6.2C13.98 6.2 14.16 6.02 14.16 5.8C14.16 5.57 13.98 5.4 13.76 5.4L12.4 5.4L12.4 5ZM11.6 6.2L10.82 6.2C10.59 6.2 10.45 6.28 10.35 6.39C10.25 6.5 10.2 6.67 10.2 6.85C10.2 7.03 10.25 7.19 10.35 7.3C10.45 7.41 10.59 7.5 10.82 7.5L11.6 7.5L11.6 6.2ZM12.4 8.3L12.4 9.6L13.17 9.6C13.4 9.6 13.54 9.51 13.64 9.4C13.74 9.29 13.8 9.12 13.8 8.95C13.8 8.77 13.74 8.6 13.64 8.49C13.54 8.38 13.4 8.3 13.17 8.3L12.4 8.3Z" fill="#FFFFFF" fill-opacity="1.000000" fill-rule="evenodd"/>
	</g>
</svg>
