<svg width="24.000000" height="24.000000" viewBox="0 0 24 24" fill="none" xmlns="http://www.w3.org/2000/svg" xmlns:xlink="http://www.w3.org/1999/xlink">
	<desc>
			Created with Pixso.
	</desc>
	<defs>
		<clipPath id="clip11_2763">
			<rect id="financial 1" rx="0.000000" width="23.000000" height="23.000000" transform="translate(0.500000 0.500000)" fill="white" fill-opacity="0"/>
		</clipPath>
	</defs>
	<rect id="financial 1" rx="0.000000" width="23.000000" height="23.000000" transform="translate(0.500000 0.500000)" fill="#FFFFFF" fill-opacity="0"/>
	<g clip-path="url(#clip11_2763)">
		<path id="Vector" d="M21.81 21.15L6.79 21.15C6.51 21.15 6.28 20.92 6.28 20.64L6.28 13.55C6.28 13.27 6.51 13.04 6.79 13.04L21.81 13.04C22.09 13.04 22.32 13.27 22.32 13.55L22.32 20.64C22.32 20.92 22.09 21.15 21.81 21.15Z" fill="#5A7A39" fill-opacity="1.000000" fill-rule="nonzero"/>
		<path id="Vector" d="M20.95 20.29L5.94 20.29C5.65 20.29 5.42 20.06 5.42 19.78L5.42 12.7C5.42 12.41 5.65 12.18 5.94 12.18L20.95 12.18C21.23 12.18 21.46 12.41 21.46 12.7L21.46 19.78C21.46 20.06 21.23 20.29 20.95 20.29Z" fill="#648940" fill-opacity="1.000000" fill-rule="nonzero"/>
		<path id="Vector" d="M20.09 19.44L5.08 19.44C4.8 19.44 4.57 19.21 4.57 18.92L4.57 11.84C4.57 11.56 4.8 11.33 5.08 11.33L20.09 11.33C20.38 11.33 20.61 11.56 20.61 11.84L20.61 18.92C20.61 19.21 20.38 19.44 20.09 19.44Z" fill="#76A34F" fill-opacity="1.000000" fill-rule="nonzero"/>
		<path id="Vector" d="M19.9 16.68L19.9 14.08C19.9 14 19.84 13.92 19.75 13.91C18.85 13.84 18.13 13.1 18.06 12.18C18.05 12.1 17.98 12.03 17.89 12.03L7.29 12.03C7.2 12.03 7.12 12.1 7.11 12.18C7.04 13.1 6.33 13.84 5.43 13.91C5.34 13.92 5.27 14 5.27 14.08L5.27 16.68C5.27 16.77 5.34 16.84 5.43 16.85C6.33 16.93 7.04 17.66 7.11 18.58C7.12 18.67 7.2 18.74 7.29 18.74L17.89 18.74C17.98 18.74 18.05 18.67 18.06 18.58C18.13 17.66 18.85 16.93 19.75 16.85C19.84 16.84 19.9 16.77 19.9 16.68Z" fill="#91B56B" fill-opacity="1.000000" fill-rule="nonzero"/>
		<path id="Vector" d="M15.23 15.38C15.23 16.84 14.05 18.03 12.59 18.03C11.13 18.03 9.94 16.84 9.94 15.38C9.94 13.92 11.13 12.74 12.59 12.74C14.05 12.74 15.23 13.92 15.23 15.38Z" fill="#FFFFFF" fill-opacity="1.000000" fill-rule="evenodd"/>
		<path id="Vector" d="M12.85 17.01L12.33 17.01C11.86 17.01 11.48 16.63 11.48 16.17C11.48 16.06 11.57 15.98 11.67 15.98C11.77 15.98 11.86 16.06 11.86 16.17C11.86 16.43 12.07 16.64 12.33 16.64L12.85 16.64C13.11 16.64 13.32 16.43 13.32 16.17L13.32 15.91C13.32 15.65 13.11 15.44 12.85 15.44L12.33 15.44C11.86 15.44 11.48 15.06 11.48 14.6C11.48 14.13 11.86 13.75 12.33 13.75L12.85 13.75C13.31 13.75 13.69 14.13 13.69 14.6C13.69 14.7 13.61 14.78 13.5 14.78C13.4 14.78 13.32 14.7 13.32 14.6C13.32 14.34 13.11 14.13 12.85 14.13L12.33 14.13C12.07 14.13 11.86 14.34 11.86 14.6C11.86 14.85 12.07 15.06 12.33 15.06L12.85 15.06C13.31 15.06 13.69 15.44 13.69 15.91L13.69 16.17C13.69 16.63 13.31 17.01 12.85 17.01Z" fill="#648940" fill-opacity="1.000000" fill-rule="nonzero"/>
		<path id="Vector" d="M12.59 17.27C12.48 17.27 12.4 17.19 12.4 17.08L12.4 13.68C12.4 13.58 12.48 13.49 12.59 13.49C12.69 13.49 12.78 13.58 12.78 13.68L12.78 17.08C12.78 17.19 12.69 17.27 12.59 17.27Z" fill="#648940" fill-opacity="1.000000" fill-rule="nonzero"/>
		<path id="Vector" d="M10.88 9.52C10.88 12.06 8.82 14.12 6.27 14.12C3.73 14.12 1.67 12.06 1.67 9.52C1.67 6.97 3.73 4.91 6.27 4.91C8.82 4.91 10.88 6.97 10.88 9.52Z" fill="#FFA91A" fill-opacity="1.000000" fill-rule="evenodd"/>
		<path id="Vector" d="M2.35 9.7C2.25 9.7 2.17 9.62 2.17 9.52C2.17 9.41 2.25 9.33 2.35 9.33C2.46 9.33 2.54 9.41 2.54 9.52C2.54 9.62 2.46 9.7 2.35 9.7ZM2.43 8.96C2.41 8.96 2.4 8.96 2.39 8.96C2.34 8.95 2.3 8.92 2.27 8.88C2.24 8.84 2.23 8.79 2.24 8.74C2.43 7.77 2.97 6.89 3.75 6.28C3.96 6.12 4.18 5.98 4.41 5.86C4.5 5.81 4.62 5.85 4.66 5.94C4.69 5.98 4.69 6.03 4.67 6.08C4.66 6.13 4.63 6.17 4.58 6.19C4.37 6.3 4.17 6.43 3.98 6.57C3.27 7.13 2.78 7.92 2.61 8.81L2.61 8.81C2.59 8.9 2.52 8.96 2.43 8.96Z" fill="#FFC91D" fill-opacity="1.000000" fill-rule="nonzero"/>
		<path id="Vector" d="M8.91 5.74C9.43 6.49 9.74 7.39 9.74 8.37C9.74 10.92 7.67 12.98 5.13 12.98C4.15 12.98 3.24 12.67 2.5 12.15C3.33 13.34 4.71 14.12 6.27 14.12C8.82 14.12 10.88 12.06 10.88 9.52C10.88 7.95 10.1 6.57 8.91 5.74Z" fill="#F79219" fill-opacity="1.000000" fill-rule="nonzero"/>
		<path id="Vector" d="M9.23 5.99C9.9 6.79 10.31 7.82 10.31 8.95C10.31 11.49 8.25 13.55 5.7 13.55C4.58 13.55 3.55 13.15 2.75 12.47C3.59 13.48 4.86 14.12 6.27 14.12C8.82 14.12 10.88 12.06 10.88 9.52C10.88 8.1 10.24 6.83 9.23 5.99Z" fill="#EF7816" fill-opacity="1.000000" fill-rule="nonzero"/>
		<path id="Vector" d="M6.69 12.12L5.85 12.12C5.17 12.12 4.62 11.56 4.62 10.88C4.62 10.78 4.7 10.7 4.81 10.7C4.91 10.7 4.99 10.78 4.99 10.88C4.99 11.36 5.38 11.74 5.85 11.74L6.69 11.74C7.17 11.74 7.55 11.36 7.55 10.88L7.55 10.46C7.55 9.99 7.17 9.6 6.69 9.6L5.85 9.6C5.17 9.6 4.62 9.05 4.62 8.37C4.62 7.69 5.17 7.13 5.85 7.13L6.69 7.13C7.37 7.13 7.93 7.69 7.93 8.37C7.93 8.47 7.84 8.56 7.74 8.56C7.64 8.56 7.55 8.47 7.55 8.37C7.55 7.89 7.17 7.51 6.69 7.51L5.85 7.51C5.38 7.51 4.99 7.89 4.99 8.37C4.99 8.84 5.38 9.23 5.85 9.23L6.69 9.23C7.37 9.23 7.93 9.78 7.93 10.46L7.93 10.88C7.93 11.56 7.37 12.12 6.69 12.12Z" fill="#FFFFFF" fill-opacity="1.000000" fill-rule="nonzero"/>
		<path id="Vector" d="M6.27 12.54C6.17 12.54 6.09 12.45 6.09 12.35L6.09 6.9C6.09 6.8 6.17 6.71 6.27 6.71C6.38 6.71 6.46 6.8 6.46 6.9L6.46 12.35C6.46 12.45 6.38 12.54 6.27 12.54Z" fill="#FFFFFF" fill-opacity="1.000000" fill-rule="nonzero"/>
		<path id="Vector" d="M19.63 6.45C19.63 8.45 18.01 10.07 16.02 10.07C14.02 10.07 12.4 8.45 12.4 6.45C12.4 4.46 14.02 2.84 16.02 2.84C18.01 2.84 19.63 4.46 19.63 6.45Z" fill="#76A34F" fill-opacity="1.000000" fill-rule="evenodd"/>
		<path id="Vector" d="M18.57 3.9C18.46 3.79 18.35 3.69 18.23 3.6C19.33 5.01 19.23 7.06 17.93 8.36C16.62 9.66 14.58 9.76 13.16 8.66C13.25 8.78 13.35 8.9 13.46 9.01C14.87 10.42 17.16 10.42 18.57 9.01C19.98 7.6 19.98 5.31 18.57 3.9Z" fill="#648940" fill-opacity="1.000000" fill-rule="nonzero"/>
		<path id="Vector" d="M15.63 8.37C15.46 8.37 15.3 8.31 15.18 8.18L13.93 6.94C13.68 6.69 13.68 6.29 13.93 6.04C14.18 5.79 14.58 5.79 14.83 6.04L15.63 6.84L17.21 5.25C17.46 5.01 17.86 5.01 18.11 5.25C18.36 5.5 18.36 5.9 18.11 6.15L16.07 8.18C15.95 8.31 15.79 8.37 15.63 8.37Z" fill="#FFC91D" fill-opacity="1.000000" fill-rule="nonzero"/>
		<path id="Vector" d="M15.37 6.58L14.83 6.04L14.83 6.04L15.37 6.58Z" fill="#377DE2" fill-opacity="1.000000" fill-rule="nonzero"/>
		<path id="Vector" d="M18.11 5.25C18.06 5.21 18.01 5.17 17.96 5.15C18.09 5.39 18.05 5.69 17.85 5.89L15.81 7.92C15.69 8.05 15.53 8.11 15.37 8.11C15.2 8.11 15.04 8.05 14.92 7.92L15.18 8.18C15.3 8.31 15.46 8.37 15.63 8.37C15.79 8.37 15.95 8.31 16.07 8.18L18.11 6.15C18.36 5.9 18.36 5.5 18.11 5.25Z" fill="#FFA91A" fill-opacity="1.000000" fill-rule="nonzero"/>
	</g>
</svg>
