<svg width="20.000000" height="20.000000" viewBox="0 0 20 20" fill="none" xmlns="http://www.w3.org/2000/svg" xmlns:xlink="http://www.w3.org/1999/xlink">
	<desc>
			Created with Pixso.
	</desc>
	<defs>
		<clipPath id="clip11_2930">
			<rect id="Frame" rx="0.000000" width="19.000000" height="19.000000" transform="translate(0.500000 0.500000)" fill="white" fill-opacity="0"/>
		</clipPath>
	</defs>
	<rect id="Frame" rx="0.000000" width="19.000000" height="19.000000" transform="translate(0.500000 0.500000)" fill="#FFFFFF" fill-opacity="0"/>
	<g clip-path="url(#clip11_2930)">
		<path id="Vector" d="M8.33 6.66L8.33 5C8.33 4.55 8.5 4.13 8.82 3.82C9.13 3.5 9.55 3.33 10 3.33L15.83 3.33C16.27 3.33 16.69 3.5 17.01 3.82C17.32 4.13 17.5 4.55 17.5 5L17.5 15C17.5 15.44 17.32 15.86 17.01 16.17C16.69 16.49 16.27 16.66 15.83 16.66L10 16.66C9.55 16.66 9.13 16.49 8.82 16.17C8.5 15.86 8.33 15.44 8.33 15L8.33 13.33" stroke="#666768" stroke-opacity="1.000000" stroke-width="1.500000" stroke-linejoin="round" stroke-linecap="round"/>
		<path id="Vector" d="M12.5 10L2.5 10L5 7.5" stroke="#666768" stroke-opacity="1.000000" stroke-width="1.500000" stroke-linejoin="round" stroke-linecap="round"/>
		<path id="Vector" d="M5 12.5L2.5 10" stroke="#666768" stroke-opacity="1.000000" stroke-width="1.500000" stroke-linejoin="round" stroke-linecap="round"/>
	</g>
</svg>
