<svg width="24.000000" height="24.000000" viewBox="0 0 24 24" fill="none" xmlns="http://www.w3.org/2000/svg" xmlns:xlink="http://www.w3.org/1999/xlink">
	<desc>
			Created with Pixso.
	</desc>
	<defs>
		<clipPath id="clip11_2813">
			<rect id="purse 1" rx="0.000000" width="23.000000" height="23.000000" transform="translate(0.500000 0.500000)" fill="white" fill-opacity="0"/>
		</clipPath>
		<linearGradient x1="12.356904" y1="2.145164" x2="12.229376" y2="5.884189" id="paint_linear_11_2814_0" gradientUnits="userSpaceOnUse">
			<stop stop-color="#FFB92D"/>
			<stop offset="1.000000" stop-color="#F59500"/>
		</linearGradient>
		<linearGradient x1="12.968354" y1="4.627777" x2="12.621076" y2="7.492187" id="paint_linear_11_2815_0" gradientUnits="userSpaceOnUse">
			<stop stop-color="#FFB92D"/>
			<stop offset="1.000000" stop-color="#F59500"/>
		</linearGradient>
		<linearGradient x1="11.867126" y1="4.712422" x2="11.867126" y2="6.894493" id="paint_linear_11_2816_0" gradientUnits="userSpaceOnUse">
			<stop stop-color="#A7F3CE"/>
			<stop offset="1.000000" stop-color="#61DB99"/>
		</linearGradient>
		<linearGradient x1="11.999743" y1="8.489904" x2="11.999743" y2="14.613068" id="paint_linear_11_2817_0" gradientUnits="userSpaceOnUse">
			<stop stop-color="#FF4C54"/>
			<stop offset="1.000000" stop-color="#BE3F45"/>
		</linearGradient>
		<linearGradient x1="11.999743" y1="13.036381" x2="11.999743" y2="22.493120" id="paint_linear_11_2818_0" gradientUnits="userSpaceOnUse">
			<stop stop-color="#FF4C54"/>
			<stop offset="1.000000" stop-color="#BE3F45"/>
		</linearGradient>
		<linearGradient x1="21.678137" y1="14.970482" x2="20.084759" y2="14.970482" id="paint_linear_11_2819_0" gradientUnits="userSpaceOnUse">
			<stop stop-color="#BE3F45" stop-opacity="0.000000"/>
			<stop offset="1.000000" stop-color="#BE3F45"/>
		</linearGradient>
		<linearGradient x1="7.427796" y1="13.334733" x2="15.533504" y2="17.073761" id="paint_linear_11_2820_0" gradientUnits="userSpaceOnUse">
			<stop stop-color="#FFB92D"/>
			<stop offset="1.000000" stop-color="#F59500"/>
		</linearGradient>
		<linearGradient x1="10.436091" y1="21.659845" x2="10.101039" y2="24.220732" id="paint_linear_11_2821_0" gradientUnits="userSpaceOnUse">
			<stop stop-color="#BE3F45" stop-opacity="0.000000"/>
			<stop offset="1.000000" stop-color="#BE3F45"/>
		</linearGradient>
		<linearGradient x1="2.102601" y1="6.481281" x2="2.102601" y2="22.857876" id="paint_linear_11_2822_0" gradientUnits="userSpaceOnUse">
			<stop stop-color="#FFF465"/>
			<stop offset="1.000000" stop-color="#FFE600"/>
		</linearGradient>
		<linearGradient x1="11.516626" y1="6.481949" x2="11.516626" y2="22.824184" id="paint_linear_11_2823_0" gradientUnits="userSpaceOnUse">
			<stop stop-color="#FFF465"/>
			<stop offset="1.000000" stop-color="#FFE600"/>
		</linearGradient>
		<linearGradient x1="2.880748" y1="6.480887" x2="2.880748" y2="22.857021" id="paint_linear_11_2824_0" gradientUnits="userSpaceOnUse">
			<stop stop-color="#FFF465"/>
			<stop offset="1.000000" stop-color="#FFE600"/>
		</linearGradient>
		<linearGradient x1="19.102619" y1="18.292027" x2="14.253779" y2="13.443190" id="paint_linear_11_2826_0" gradientUnits="userSpaceOnUse">
			<stop stop-color="#BE3F45" stop-opacity="0.000000"/>
			<stop offset="1.000000" stop-color="#BE3F45"/>
		</linearGradient>
		<linearGradient x1="16.793047" y1="14.896301" x2="16.793047" y2="17.398365" id="paint_linear_11_2827_0" gradientUnits="userSpaceOnUse">
			<stop stop-color="#FF4C54"/>
			<stop offset="1.000000" stop-color="#BE3F45"/>
		</linearGradient>
		<linearGradient x1="16.793055" y1="16.732002" x2="16.793055" y2="15.005451" id="paint_linear_11_2828_0" gradientUnits="userSpaceOnUse">
			<stop stop-color="#FF4C54"/>
			<stop offset="1.000000" stop-color="#BE3F45"/>
		</linearGradient>
		<linearGradient x1="13.997635" y1="5.186837" x2="14.491739" y2="7.368911" id="paint_linear_11_2829_0" gradientUnits="userSpaceOnUse">
			<stop stop-color="#A7F3CE"/>
			<stop offset="1.000000" stop-color="#61DB99"/>
		</linearGradient>
		<linearGradient x1="14.904888" y1="5.186944" x2="15.398996" y2="7.369011" id="paint_linear_11_2830_0" gradientUnits="userSpaceOnUse">
			<stop stop-color="#A7F3CE"/>
			<stop offset="1.000000" stop-color="#61DB99"/>
		</linearGradient>
		<linearGradient x1="13.802097" y1="5.231064" x2="14.296204" y2="7.413140" id="paint_linear_11_2831_0" gradientUnits="userSpaceOnUse">
			<stop stop-color="#A7F3CE"/>
			<stop offset="1.000000" stop-color="#61DB99"/>
		</linearGradient>
		<linearGradient x1="14.709377" y1="5.231168" x2="15.203483" y2="7.413244" id="paint_linear_11_2832_0" gradientUnits="userSpaceOnUse">
			<stop stop-color="#A7F3CE"/>
			<stop offset="1.000000" stop-color="#61DB99"/>
		</linearGradient>
	</defs>
	<rect id="purse 1" rx="0.000000" width="23.000000" height="23.000000" transform="translate(0.500000 0.500000)" fill="#FFFFFF" fill-opacity="0"/>
	<g clip-path="url(#clip11_2813)">
		<path id="Vector" d="M21.15 22L2.84 22C1.87 22 1.07 21.21 1.07 20.23L1.07 4.99C1.07 4.01 1.87 3.22 2.84 3.22L21.15 3.22C22.12 3.22 22.92 4.01 22.92 4.99L22.92 20.23C22.92 21.21 22.12 22 21.15 22Z" fill="url(#paint_linear_11_2814_0)" fill-opacity="1.000000" fill-rule="nonzero"/>
		<path id="Vector" d="M20.74 21.58L3.25 21.58C2.32 21.58 1.56 20.83 1.56 19.89L1.56 5.33C1.56 4.4 2.32 3.64 3.25 3.64L20.74 3.64C21.67 3.64 22.43 4.4 22.43 5.33L22.43 19.89C22.43 20.83 21.67 21.58 20.74 21.58Z" fill="url(#paint_linear_11_2815_0)" fill-opacity="1.000000" fill-rule="nonzero"/>
		<path id="Vector" d="M21.73 8.15L17.33 0.53C17.03 0.02 16.39 -0.16 15.88 0.14L1.99 8.15L21.73 8.15Z" fill="url(#paint_linear_11_2816_0)" fill-opacity="1.000000" fill-rule="nonzero"/>
		<path id="Vector" d="M1.07 14.29L22.92 14.29L22.92 8.51C22.92 7.78 22.32 7.19 21.59 7.19L2.4 7.19C1.67 7.19 1.07 7.78 1.07 8.51L1.07 14.29Z" fill="url(#paint_linear_11_2817_0)" fill-opacity="1.000000" fill-rule="nonzero"/>
		<path id="Vector" d="M1.07 12.12L1.07 20.23C1.07 21.21 1.87 22 2.84 22L21.15 22C22.12 22 22.92 21.21 22.92 20.23L22.92 12.12C22.92 11.51 22.43 11.03 21.82 11.03L2.17 11.03C1.56 11.03 1.07 11.51 1.07 12.12Z" fill="url(#paint_linear_11_2818_0)" fill-opacity="1.000000" fill-rule="nonzero"/>
		<path id="Vector" d="M19.62 7.93L19.62 22L21.15 22C22.12 22 22.92 21.21 22.92 20.23L22.92 11.23L19.62 7.93Z" fill="url(#paint_linear_11_2819_0)" fill-opacity="1.000000" fill-rule="nonzero"/>
		<path id="Vector" d="M18.13 23.98L2.8 22.2C1.82 22.09 1.07 21.25 1.07 20.26L1.07 4.86C1.07 5.19 1.32 5.47 1.65 5.51L18.58 7.47C19.56 7.59 20.3 8.42 20.3 9.41L20.3 22.05C20.3 23.21 19.29 24.12 18.13 23.98Z" fill="url(#paint_linear_11_2820_0)" fill-opacity="1.000000" fill-rule="nonzero"/>
		<path id="Vector" d="M18.13 20.9L2.8 19.12C1.82 19.01 1.07 18.18 1.07 17.19L1.07 20.27C1.07 21.25 1.82 22.09 2.8 22.2L18.13 23.98C19.29 24.12 20.3 23.21 20.3 22.05L20.3 18.97C20.3 20.13 19.29 21.04 18.13 20.9Z" fill="url(#paint_linear_11_2821_0)" fill-opacity="1.000000" fill-rule="nonzero"/>
		<path id="Vector" d="M2.45 7.26C2.44 7.26 2.42 7.26 2.41 7.26L1.71 7.18C1.51 7.16 1.37 6.98 1.4 6.79C1.42 6.6 1.59 6.46 1.79 6.48L2.49 6.56C2.68 6.58 2.82 6.75 2.8 6.94C2.78 7.13 2.63 7.26 2.45 7.26Z" fill="url(#paint_linear_11_2822_0)" fill-opacity="1.000000" fill-rule="nonzero"/>
		<path id="Vector" d="M16.87 22.82C16.85 22.82 16.84 22.82 16.82 22.82L15.46 22.64C15.26 22.62 15.13 22.44 15.15 22.25C15.18 22.05 15.35 21.92 15.55 21.94L16.91 22.12C17.1 22.14 17.24 22.32 17.22 22.51C17.19 22.69 17.04 22.82 16.87 22.82ZM18.21 22.64C18.08 22.64 17.95 22.57 17.89 22.44C17.81 22.27 17.88 22.06 18.06 21.97C18.42 21.8 18.69 21.52 18.8 21.2C18.86 21.02 19.06 20.92 19.25 20.99C19.43 21.05 19.53 21.25 19.46 21.44C19.29 21.94 18.89 22.36 18.36 22.61C18.31 22.63 18.26 22.64 18.21 22.64ZM14.14 22.47C14.12 22.47 14.11 22.47 14.09 22.47L12.73 22.3C12.54 22.27 12.4 22.09 12.42 21.9C12.45 21.71 12.63 21.57 12.82 21.6L14.18 21.77C14.38 21.79 14.51 21.97 14.49 22.16C14.47 22.34 14.31 22.47 14.14 22.47ZM11.41 22.13C11.4 22.13 11.38 22.12 11.37 22.12L10 21.95C9.81 21.92 9.67 21.75 9.7 21.55C9.72 21.36 9.9 21.22 10.09 21.25L11.46 21.42C11.65 21.45 11.79 21.62 11.76 21.82C11.74 22 11.59 22.13 11.41 22.13ZM8.68 21.78C8.67 21.78 8.65 21.78 8.64 21.78L7.28 21.6C7.08 21.58 6.95 21.4 6.97 21.21C6.99 21.01 7.17 20.88 7.36 20.9L8.73 21.08C8.92 21.1 9.06 21.28 9.03 21.47C9.01 21.65 8.86 21.78 8.68 21.78ZM5.96 21.43C5.94 21.43 5.93 21.43 5.91 21.43L4.55 21.26C4.35 21.23 4.22 21.05 4.24 20.86C4.27 20.67 4.44 20.53 4.64 20.56L6 20.73C6.19 20.75 6.33 20.93 6.31 21.12C6.28 21.3 6.13 21.43 5.96 21.43ZM19.21 20.31C19.01 20.31 18.86 20.15 18.86 19.95L18.86 18.58C18.86 18.39 19.01 18.23 19.21 18.23C19.4 18.23 19.56 18.39 19.56 18.58L19.56 19.95C19.56 20.15 19.4 20.31 19.21 20.31ZM19.21 17.56C19.01 17.56 18.86 17.4 18.86 17.21L18.86 15.83C18.86 15.64 19.01 15.48 19.21 15.48C19.4 15.48 19.56 15.64 19.56 15.83L19.56 17.21C19.56 17.4 19.4 17.56 19.21 17.56ZM19.21 14.81C19.01 14.81 18.86 14.65 18.86 14.46L18.86 13.08C18.86 12.89 19.01 12.73 19.21 12.73C19.4 12.73 19.56 12.89 19.56 13.08L19.56 14.46C19.56 14.65 19.4 14.81 19.21 14.81ZM19.21 12.06C19.01 12.06 18.86 11.9 18.86 11.71L18.86 10.33C18.86 10.14 19.01 9.98 19.21 9.98C19.4 9.98 19.56 10.14 19.56 10.33L19.56 11.71C19.56 11.9 19.4 12.06 19.21 12.06ZM18.72 9.45C18.63 9.45 18.54 9.42 18.47 9.36C18.21 9.11 17.85 8.95 17.45 8.91L17.44 8.91C17.25 8.89 17.11 8.71 17.13 8.52C17.15 8.33 17.32 8.19 17.52 8.21L17.52 8.21C18.07 8.26 18.58 8.49 18.96 8.84C19.1 8.98 19.11 9.2 18.97 9.34C18.9 9.41 18.81 9.45 18.72 9.45ZM16.11 8.76C16.1 8.76 16.09 8.76 16.07 8.76L14.71 8.61C14.51 8.59 14.37 8.41 14.4 8.22C14.42 8.03 14.59 7.89 14.78 7.91L16.15 8.06C16.34 8.08 16.48 8.25 16.46 8.45C16.44 8.63 16.29 8.76 16.11 8.76ZM13.38 8.46C13.37 8.46 13.35 8.46 13.34 8.46L11.97 8.31C11.78 8.29 11.64 8.11 11.66 7.92C11.68 7.73 11.86 7.59 12.05 7.61L13.42 7.76C13.61 7.78 13.75 7.95 13.73 8.15C13.71 8.33 13.56 8.46 13.38 8.46ZM10.65 8.16C10.63 8.16 10.62 8.16 10.61 8.16L9.24 8.01C9.05 7.99 8.91 7.81 8.93 7.62C8.95 7.42 9.13 7.29 9.32 7.31L10.69 7.46C10.88 7.48 11.02 7.65 11 7.85C10.98 8.03 10.82 8.16 10.65 8.16ZM7.91 7.86C7.9 7.86 7.89 7.86 7.88 7.86L6.51 7.71C6.32 7.69 6.18 7.51 6.2 7.32C6.22 7.12 6.39 6.98 6.59 7.01L7.95 7.16C8.15 7.18 8.29 7.35 8.26 7.55C8.25 7.73 8.09 7.86 7.91 7.86ZM5.18 7.56C5.17 7.56 5.16 7.56 5.14 7.56L3.78 7.41C3.58 7.39 3.44 7.21 3.46 7.02C3.49 6.82 3.66 6.68 3.85 6.71L5.22 6.86C5.41 6.88 5.55 7.05 5.53 7.25C5.51 7.43 5.36 7.56 5.18 7.56Z" fill="url(#paint_linear_11_2823_0)" fill-opacity="1.000000" fill-rule="nonzero"/>
		<path id="Vector" d="M3.23 21.08C3.21 21.08 3.2 21.08 3.18 21.08L2.48 20.99C2.29 20.97 2.15 20.79 2.18 20.6C2.2 20.4 2.38 20.27 2.57 20.29L3.27 20.38C3.46 20.41 3.6 20.58 3.58 20.78C3.55 20.95 3.4 21.08 3.23 21.08Z" fill="url(#paint_linear_11_2824_0)" fill-opacity="1.000000" fill-rule="nonzero"/>
		<path id="Vector" d="M16.19 2.62L13.93 3.85C13.64 4.01 13.27 3.9 13.11 3.61C12.95 3.32 13.06 2.95 13.35 2.79L15.61 1.56C15.91 1.4 16.28 1.51 16.44 1.8C16.6 2.09 16.49 2.46 16.19 2.62Z" fill="#61DB99" fill-opacity="1.000000" fill-rule="nonzero"/>
		<path id="Vector" d="M20.3 17.05L18.06 14.81C17.75 14.46 17.29 14.25 16.79 14.25C15.83 14.25 15.06 15.02 15.06 15.98C15.06 16.48 15.27 16.94 15.62 17.25L20.3 21.94L20.3 17.05L20.3 17.05Z" fill="url(#paint_linear_11_2826_0)" fill-opacity="1.000000" fill-rule="nonzero"/>
		<path id="Vector" d="M18.52 15.98C18.52 16.93 17.74 17.71 16.79 17.71C15.83 17.71 15.06 16.93 15.06 15.98C15.06 15.02 15.83 14.25 16.79 14.25C17.74 14.25 18.52 15.02 18.52 15.98Z" fill="url(#paint_linear_11_2827_0)" fill-opacity="1.000000" fill-rule="evenodd"/>
		<path id="Vector" d="M17.98 15.98C17.98 16.64 17.45 17.17 16.79 17.17C16.13 17.17 15.59 16.64 15.59 15.98C15.59 15.32 16.13 14.78 16.79 14.78C17.45 14.78 17.98 15.32 17.98 15.98Z" fill="url(#paint_linear_11_2828_0)" fill-opacity="1.000000" fill-rule="evenodd"/>
		<path id="Vector" d="M16.58 15.52C16.58 15.66 16.47 15.77 16.33 15.77C16.2 15.77 16.09 15.66 16.09 15.52C16.09 15.39 16.2 15.28 16.33 15.28C16.47 15.28 16.58 15.39 16.58 15.52Z" fill="url(#paint_linear_11_2829_0)" fill-opacity="1.000000" fill-rule="evenodd"/>
		<path id="Vector" d="M17.49 15.52C17.49 15.66 17.38 15.77 17.24 15.77C17.11 15.77 17 15.66 17 15.52C17 15.39 17.11 15.28 17.24 15.28C17.38 15.28 17.49 15.39 17.49 15.52Z" fill="url(#paint_linear_11_2830_0)" fill-opacity="1.000000" fill-rule="evenodd"/>
		<path id="Vector" d="M16.58 16.43C16.58 16.57 16.47 16.68 16.33 16.68C16.2 16.68 16.09 16.57 16.09 16.43C16.09 16.29 16.2 16.18 16.33 16.18C16.47 16.18 16.58 16.29 16.58 16.43Z" fill="url(#paint_linear_11_2831_0)" fill-opacity="1.000000" fill-rule="evenodd"/>
		<path id="Vector" d="M17.49 16.43C17.49 16.57 17.38 16.68 17.24 16.68C17.11 16.68 17 16.57 17 16.43C17 16.29 17.11 16.18 17.24 16.18C17.38 16.18 17.49 16.29 17.49 16.43Z" fill="url(#paint_linear_11_2832_0)" fill-opacity="1.000000" fill-rule="evenodd"/>
	</g>
</svg>
