<svg width="24.000000" height="24.000000" viewBox="0 0 24 24" fill="none" xmlns="http://www.w3.org/2000/svg" xmlns:xlink="http://www.w3.org/1999/xlink">
	<desc>
			Created with Pixso.
	</desc>
	<defs>
		<clipPath id="clip11_2836">
			<rect id="transaction 1" rx="0.000000" width="23.000000" height="23.000000" transform="translate(0.500000 0.500000)" fill="white" fill-opacity="0"/>
		</clipPath>
	</defs>
	<rect id="transaction 1" rx="0.000000" width="23.000000" height="23.000000" transform="translate(0.500000 0.500000)" fill="#FFFFFF" fill-opacity="0"/>
	<g clip-path="url(#clip11_2836)">
		<path id="Vector" d="M17.05 23.81L21.58 19.61C21.89 19.33 21.89 18.86 21.58 18.58L17.05 14.38C16.59 13.97 15.86 14.29 15.86 14.9L15.86 16.69L9.07 16.69C8.75 16.69 8.49 16.95 8.49 17.27L8.49 20.92C8.49 21.24 8.75 21.5 9.07 21.5L15.86 21.5L15.86 23.29C15.86 23.9 16.59 24.22 17.05 23.81Z" fill="#48ACFF" fill-opacity="1.000000" fill-rule="nonzero"/>
		<path id="Vector" d="M21.58 19.61L17.05 23.81C16.59 24.22 15.86 23.9 15.86 23.29L15.86 22.39C18.03 22.05 19.68 20.18 19.68 17.91C19.68 17.48 19.62 17.06 19.51 16.66L21.58 18.58C21.89 18.86 21.89 19.33 21.58 19.61Z" fill="#229BFF" fill-opacity="1.000000" fill-rule="nonzero"/>
		<path id="Vector" d="M21.58 19.61L21.33 19.85L8.49 19.85L8.49 17.27C8.49 16.95 8.75 16.69 9.07 16.69L15.86 16.69L15.86 14.9C15.86 14.29 16.59 13.97 17.05 14.38L21.58 18.58C21.89 18.86 21.89 19.33 21.58 19.61Z" fill="#229BFF" fill-opacity="1.000000" fill-rule="nonzero"/>
		<path id="Vector" d="M6.94 9.61L2.41 5.41C2.1 5.13 2.1 4.66 2.41 4.38L6.94 0.18C7.4 -0.23 8.13 0.09 8.13 0.7L8.13 2.49L14.92 2.49C15.24 2.49 15.5 2.75 15.5 3.07L15.5 6.72C15.5 7.04 15.24 7.3 14.92 7.3L8.13 7.3L8.13 9.09C8.13 9.7 7.4 10.02 6.94 9.61Z" fill="#FF4881" fill-opacity="1.000000" fill-rule="nonzero"/>
		<path id="Vector" d="M15.5 5.05L15.5 3.07C15.5 2.75 15.24 2.49 14.92 2.49L14.52 2.49C14.52 3.43 13.77 4.7 12.13 5.05L15.5 5.05Z" fill="#FE255F" fill-opacity="1.000000" fill-rule="nonzero"/>
		<path id="Vector" d="M12.17 2.49L8.08 2.49C7.63 2.49 7.26 2.86 7.26 3.31C7.26 3.77 7.63 4.14 8.08 4.14L12.17 4.14C12.63 4.14 13 3.77 13 3.31C13 2.86 12.63 2.49 12.17 2.49Z" fill="#FC709B" fill-opacity="1.000000" fill-rule="nonzero"/>
		<path id="Vector" d="M10.36 2.49L9.53 2.49C9.08 2.49 8.71 2.86 8.71 3.31C8.71 3.77 9.08 4.14 9.53 4.14L10.36 4.14C10.82 4.14 11.19 3.77 11.19 3.31C11.19 2.86 10.82 2.49 10.36 2.49Z" fill="#F7A6C1" fill-opacity="1.000000" fill-rule="nonzero"/>
		<path id="Vector" d="M22.59 18.94L1.4 18.94C0.62 18.94 6.1e-5 18.31 6.1e-5 17.53L6.1e-5 6.46C6.1e-5 5.68 0.62 5.05 1.4 5.05L22.59 5.05C23.37 5.05 24 5.68 24 6.46L24 17.53C24 18.31 23.37 18.94 22.59 18.94Z" fill="#29E088" fill-opacity="1.000000" fill-rule="nonzero"/>
		<path id="Vector" d="M24 6.46L24 17.53C24 18.31 23.37 18.94 22.59 18.94L11.13 18.94C16.6 17.95 20.74 13.17 20.74 7.42C20.74 6.61 20.66 5.82 20.5 5.05L22.59 5.05C23.37 5.05 24 5.68 24 6.46Z" fill="#0CC166" fill-opacity="1.000000" fill-rule="nonzero"/>
		<path id="Vector" d="M24 13.72L24 17.53C24 18.31 23.37 18.94 22.59 18.94L17.14 18.94C20.17 18.39 22.7 16.41 24 13.72Z" fill="#04A550" fill-opacity="1.000000" fill-rule="nonzero"/>
		<path id="Vector" d="M22.35 7.16L22.35 16.36C22.35 16.88 21.93 17.3 21.42 17.3L2.1 17.3C1.85 17.3 1.64 17.09 1.64 16.83L1.64 7.63C1.64 7.11 2.06 6.69 2.57 6.69L21.89 6.69C22.14 6.69 22.35 6.9 22.35 7.16Z" fill="#0CC166" fill-opacity="1.000000" fill-rule="nonzero"/>
		<path id="Vector" d="M22.35 7.16L22.35 16.36C22.35 16.88 21.93 17.3 21.42 17.3L15.32 17.3C18.58 15.22 20.74 11.58 20.74 7.42C20.74 7.18 20.73 6.93 20.72 6.69L21.89 6.69C22.14 6.69 22.35 6.9 22.35 7.16Z" fill="#04A550" fill-opacity="1.000000" fill-rule="nonzero"/>
		<path id="Vector" d="M16.07 12C16.07 14.52 14.25 16.57 12 16.57C9.74 16.57 7.92 14.52 7.92 12C7.92 9.47 9.74 7.42 12 7.42C14.25 7.42 16.07 9.47 16.07 12Z" fill="#04A550" fill-opacity="1.000000" fill-rule="evenodd"/>
		<path id="Vector" d="M16.07 12C16.07 14.52 14.25 16.57 12 16.57C10.65 16.57 9.46 15.84 8.72 14.72C9.27 14.96 9.87 15.09 10.5 15.09C12.99 15.09 15 13.07 15 10.59C15 9.74 14.76 8.94 14.35 8.26C15.39 9.09 16.07 10.45 16.07 12Z" fill="#00893E" fill-opacity="1.000000" fill-rule="nonzero"/>
		<path id="Vector" d="M13.24 11.94L11.31 10.96C11.27 10.94 11.25 10.91 11.25 10.87C11.25 10.82 11.3 10.78 11.35 10.78L12.64 10.78C12.69 10.78 12.74 10.82 12.74 10.87C12.74 11.21 13.01 11.48 13.35 11.48C13.68 11.48 13.96 11.21 13.96 10.87C13.96 10.15 13.37 9.55 12.64 9.55L12.61 9.55L12.61 9.41C12.61 9.07 12.33 8.8 12 8.8C11.66 8.8 11.38 9.07 11.38 9.41L11.38 9.55L11.35 9.55C10.62 9.55 10.03 10.15 10.03 10.87C10.03 11.37 10.31 11.82 10.75 12.05L12.68 13.03C12.72 13.05 12.74 13.08 12.74 13.12C12.74 13.17 12.69 13.21 12.64 13.21L11.35 13.21C11.3 13.21 11.25 13.17 11.25 13.12C11.25 12.78 10.98 12.51 10.64 12.51C10.31 12.51 10.03 12.78 10.03 13.12C10.03 13.84 10.62 14.44 11.35 14.44L11.38 14.44L11.38 14.58C11.38 14.92 11.66 15.19 12 15.19C12.33 15.19 12.61 14.92 12.61 14.58L12.61 14.44L12.64 14.44C13.37 14.44 13.96 13.84 13.96 13.12C13.96 12.62 13.68 12.17 13.24 11.94Z" fill="#29E088" fill-opacity="1.000000" fill-rule="nonzero"/>
		<path id="Vector" d="M12.69 11.66L11.85 11.24C11.55 11.08 11.18 11.2 11.03 11.5C10.88 11.8 11 12.17 11.3 12.33L12.14 12.75C12.44 12.91 12.81 12.79 12.96 12.49C13.11 12.19 12.99 11.82 12.69 11.66Z" fill="#79FF79" fill-opacity="1.000000" fill-rule="nonzero"/>
		<path id="Vector" d="M3.33 9.32L1.64 9.32L1.64 7.63C1.64 7.11 2.06 6.69 2.57 6.69L4.26 6.69L4.26 8.38C4.26 8.9 3.84 9.32 3.33 9.32Z" fill="#79FF79" fill-opacity="1.000000" fill-rule="nonzero"/>
		<path id="Vector" d="M22.35 14.67L22.35 16.36C22.35 16.88 21.93 17.3 21.42 17.3L19.73 17.3L19.73 15.61C19.73 15.09 20.15 14.67 20.66 14.67L22.35 14.67Z" fill="#79FF79" fill-opacity="1.000000" fill-rule="nonzero"/>
		<path id="Vector" d="M20.8 8.96L17.41 8.96C17.09 8.96 16.82 8.7 16.82 8.37C16.82 8.05 17.09 7.79 17.41 7.79L20.8 7.79C21.12 7.79 21.38 8.05 21.38 8.37C21.38 8.7 21.12 8.96 20.8 8.96Z" fill="#00893E" fill-opacity="1.000000" fill-rule="nonzero"/>
		<path id="Vector" d="M19.34 7.79L18.27 7.79C17.94 7.79 17.68 8.05 17.68 8.37C17.68 8.7 17.94 8.96 18.27 8.96L19.34 8.96C19.66 8.96 19.93 8.7 19.93 8.37C19.93 8.05 19.66 7.79 19.34 7.79Z" fill="#04A550" fill-opacity="1.000000" fill-rule="nonzero"/>
		<path id="Vector" d="M6.58 16.2L3.19 16.2C2.87 16.2 2.61 15.94 2.61 15.62C2.61 15.29 2.87 15.03 3.19 15.03L6.58 15.03C6.9 15.03 7.17 15.29 7.17 15.62C7.17 15.94 6.9 16.2 6.58 16.2Z" fill="#00893E" fill-opacity="1.000000" fill-rule="nonzero"/>
		<path id="Vector" d="M5.1 15.03L3.93 15.03C3.61 15.03 3.35 15.29 3.35 15.62C3.35 15.94 3.61 16.2 3.93 16.2L5.1 16.2C5.43 16.2 5.69 15.94 5.69 15.62C5.69 15.29 5.43 15.03 5.1 15.03Z" fill="#04A550" fill-opacity="1.000000" fill-rule="nonzero"/>
		<path id="Vector" d="M15.69 8.8C15.69 9.19 15.37 9.5 14.98 9.5C14.59 9.5 14.28 9.19 14.28 8.8C14.28 8.41 14.59 8.1 14.98 8.1C15.37 8.1 15.69 8.41 15.69 8.8Z" fill="#79FF79" fill-opacity="1.000000" fill-rule="evenodd"/>
		<path id="Vector" d="M15.69 15.19C15.69 15.58 15.37 15.89 14.98 15.89C14.59 15.89 14.28 15.58 14.28 15.19C14.28 14.8 14.59 14.49 14.98 14.49C15.37 14.49 15.69 14.8 15.69 15.19Z" fill="#79FF79" fill-opacity="1.000000" fill-rule="evenodd"/>
		<path id="Vector" d="M9.71 8.8C9.71 9.19 9.4 9.5 9.01 9.5C8.62 9.5 8.3 9.19 8.3 8.8C8.3 8.41 8.62 8.1 9.01 8.1C9.4 8.1 9.71 8.41 9.71 8.8Z" fill="#79FF79" fill-opacity="1.000000" fill-rule="evenodd"/>
		<path id="Vector" d="M9.71 15.19C9.71 15.58 9.4 15.89 9.01 15.89C8.62 15.89 8.3 15.58 8.3 15.19C8.3 14.8 8.62 14.49 9.01 14.49C9.4 14.49 9.71 14.8 9.71 15.19Z" fill="#79FF79" fill-opacity="1.000000" fill-rule="evenodd"/>
		<path id="Vector" d="M16.84 12C16.84 12.38 16.53 12.7 16.14 12.7C15.75 12.7 15.44 12.38 15.44 12C15.44 11.61 15.75 11.29 16.14 11.29C16.53 11.29 16.84 11.61 16.84 12Z" fill="#29E088" fill-opacity="1.000000" fill-rule="evenodd"/>
		<path id="Vector" d="M8.55 12C8.55 12.38 8.24 12.7 7.85 12.7C7.46 12.7 7.15 12.38 7.15 12C7.15 11.61 7.46 11.29 7.85 11.29C8.24 11.29 8.55 11.61 8.55 12Z" fill="#29E088" fill-opacity="1.000000" fill-rule="evenodd"/>
		<path id="Vector" d="M14.2 5.05L6.06 5.05C5.61 5.05 5.24 5.42 5.24 5.87C5.24 6.33 5.61 6.69 6.06 6.69L14.2 6.69C14.65 6.69 15.02 6.33 15.02 5.87C15.02 5.42 14.65 5.05 14.2 5.05Z" fill="#79FF79" fill-opacity="1.000000" fill-rule="nonzero"/>
		<path id="Vector" d="M11.52 5.05L8.29 5.05C7.83 5.05 7.47 5.42 7.47 5.87C7.47 6.33 7.83 6.69 8.29 6.69L11.52 6.69C11.97 6.69 12.34 6.33 12.34 5.87C12.34 5.42 11.97 5.05 11.52 5.05Z" fill="#C2FFC2" fill-opacity="1.000000" fill-rule="nonzero"/>
		<path id="Vector" d="M1.64 15.93L1.64 11.81C1.64 11.36 1.27 10.99 0.82 10.99C0.36 10.99 6.1e-5 11.36 6.1e-5 11.81L6.1e-5 15.93C6.1e-5 16.38 0.36 16.75 0.82 16.75C1.27 16.75 1.64 16.38 1.64 15.93Z" fill="#79FF79" fill-opacity="1.000000" fill-rule="nonzero"/>
		<path id="Vector" d="M6.1e-5 13.13L6.1e-5 13.71C6.1e-5 14.16 0.36 14.53 0.82 14.53C1.27 14.53 1.64 14.16 1.64 13.71L1.64 13.13C1.64 12.67 1.27 12.31 0.82 12.31C0.36 12.31 6.1e-5 12.67 6.1e-5 13.13Z" fill="#C2FFC2" fill-opacity="1.000000" fill-rule="nonzero"/>
		<path id="Vector" d="M14.07 19.85L10.35 19.85C9.9 19.85 9.53 20.22 9.53 20.67C9.53 21.13 9.9 21.5 10.35 21.5L14.07 21.5C14.52 21.5 14.89 21.13 14.89 20.67C14.89 20.22 14.52 19.85 14.07 19.85Z" fill="#7CBAF7" fill-opacity="1.000000" fill-rule="nonzero"/>
		<path id="Vector" d="M12.34 19.85L11.51 19.85C11.05 19.85 10.68 20.22 10.68 20.67C10.68 21.13 11.05 21.5 11.51 21.5L12.34 21.5C12.79 21.5 13.16 21.13 13.16 20.67C13.16 20.22 12.79 19.85 12.34 19.85Z" fill="#A9CFFC" fill-opacity="1.000000" fill-rule="nonzero"/>
		<path id="Vector" d="M22.35 16.1L22.35 16.36C22.35 16.88 21.93 17.3 21.42 17.3L21 17.3C21.49 16.94 21.94 16.54 22.35 16.1Z" fill="#0CC166" fill-opacity="1.000000" fill-rule="nonzero"/>
	</g>
</svg>
