<svg width="24.000000" height="24.000000" viewBox="0 0 24 24" fill="none" xmlns="http://www.w3.org/2000/svg" xmlns:xlink="http://www.w3.org/1999/xlink">
	<desc>
			Created with Pixso.
	</desc>
	<defs>
		<clipPath id="clip11_2745">
			<rect id="money 1" rx="0.000000" width="23.000000" height="23.000000" transform="translate(0.500000 0.500000)" fill="white" fill-opacity="0"/>
		</clipPath>
	</defs>
	<rect id="money 1" rx="0.000000" width="23.000000" height="23.000000" transform="translate(0.500000 0.500000)" fill="#FFFFFF" fill-opacity="0"/>
	<g clip-path="url(#clip11_2745)">
		<path id="Vector" d="M24 19.23L16.4 14.45L16.4 16.52L12 16.52L11.49 19.04L12 21.94L16.4 21.94L16.4 24.02L24 19.23Z" fill="#0BD5DD" fill-opacity="1.000000" fill-rule="nonzero"/>
		<path id="Vector" d="M10.37 16.52L5.83 12.11L5.83 17.23C5.83 19.83 7.95 21.94 10.55 21.94L12 21.94L12 16.52L10.37 16.52Z" fill="#00E5EE" fill-opacity="1.000000" fill-rule="nonzero"/>
		<path id="Vector" d="M13.44 2.12L12 2.12L10.99 4.52L12 7.54L13.62 7.54L18.16 11.95L18.16 6.83C18.16 4.23 16.04 2.12 13.44 2.12Z" fill="#0DD141" fill-opacity="1.000000" fill-rule="nonzero"/>
		<path id="Vector" d="M7.59 2.12L7.59 0.04L0 4.83L7.59 9.61L7.59 7.54L12 7.54L12 2.12L7.59 2.12Z" fill="#52E161" fill-opacity="1.000000" fill-rule="nonzero"/>
		<path id="Vector" d="M12 5.88L11.49 12.18L12 18.18C15.39 18.18 18.15 15.43 18.15 12.03C18.15 8.63 15.39 5.88 12 5.88Z" fill="#FC7419" fill-opacity="1.000000" fill-rule="nonzero"/>
		<path id="Vector" d="M5.84 12.03C5.84 15.43 8.6 18.18 12 18.18L12 5.88C8.6 5.88 5.84 8.63 5.84 12.03Z" fill="#FDA102" fill-opacity="1.000000" fill-rule="nonzero"/>
		<path id="Vector" d="M12 5.17L11.49 5.67L12 6.58C15 6.58 17.45 9.02 17.45 12.03C17.45 15.04 15 17.48 12 17.48L11.49 18.18L12 18.89C15.78 18.89 18.85 15.81 18.85 12.03C18.85 8.25 15.78 5.17 12 5.17Z" fill="#FDAE02" fill-opacity="1.000000" fill-rule="nonzero"/>
		<path id="Vector" d="M6.54 12.03C6.54 9.02 8.99 6.58 12 6.58L12 5.17C8.21 5.17 5.14 8.25 5.14 12.03C5.14 15.81 8.21 18.89 12 18.89L12 17.48C8.99 17.48 6.54 15.04 6.54 12.03Z" fill="#FDCB02" fill-opacity="1.000000" fill-rule="nonzero"/>
		<path id="Vector" d="M12.15 10.6C12.61 10.6 13.11 10.73 13.65 11L14.19 9.68C13.75 9.44 13.2 9.29 12.63 9.24L12.63 8.41L12 8.41L11.49 10.18L12 10.6C12.04 10.6 12.09 10.6 12.15 10.6Z" fill="#FDD535" fill-opacity="1.000000" fill-rule="nonzero"/>
		<path id="Vector" d="M12 11.28L11.49 12.18L12 12.79C12.37 12.87 12.63 12.97 12.63 13.17C12.63 13.35 12.46 13.45 12 13.46L11.49 14.18L12 15.65L12.63 15.65L12.63 14.79C13.82 14.58 14.42 13.86 14.42 13.03C14.42 11.59 12.86 11.48 12 11.28Z" fill="#FDD535" fill-opacity="1.000000" fill-rule="nonzero"/>
		<path id="Vector" d="M11.93 13.46C11.34 13.46 10.66 13.27 10.15 12.97L9.57 14.29C10.03 14.58 10.78 14.78 11.54 14.83L11.54 15.65L12 15.65L12 13.46C11.97 13.46 11.95 13.46 11.93 13.46Z" fill="#FEEA9A" fill-opacity="1.000000" fill-rule="nonzero"/>
		<path id="Vector" d="M11.54 9.25C10.28 9.43 9.65 10.16 9.65 11.03C9.65 12.44 11.12 12.59 12 12.79L12 11.28C11.67 11.2 11.44 11.11 11.44 10.94C11.44 10.77 11.58 10.63 12 10.6L12 8.41L11.54 8.41L11.54 9.25Z" fill="#FEEA9A" fill-opacity="1.000000" fill-rule="nonzero"/>
	</g>
</svg>
